# AST/ASF file generated using VICON BodyLanguage
# -----------------------------------------------
:version 1.10
:name VICON
:units
  mass 1.0
  length 0.45
  angle deg
:documentation
   .ast/.asf automatically generated from VICON data using
   VICON BodyBuilder and BodyLanguage model FoxedUp or BRILLIANT.MOD
:root
   order TX TY TZ RX RY RZ
   axis XYZ
   position 0 0 0  
   orientation 0 0 0 
:bonedata
  begin
     id 1 
     name lhipjoint
     direction 0.558404 -0.748506 0.357664 
     length 2.4234 
     axis 0 0 0  XYZ
  end
  begin
     id 2 
     name lfemur
     direction 0.34202 -0.939693 0  
     length 7.14567  
     axis 0 0 20  XYZ
    dof rx ry rz
    limits (-160.0 20.0)
           (-70.0 70.0)
           (-60.0 70.0)
  end
  begin
     id 3 
     name ltibia
     direction 0.34202 -0.939693 0   
     length 8.13956   
     axis 0 0 20   XYZ
    dof rx
    limits (-10.0 170.0)
  end
  begin
     id 4 
     name lfoot
     direction 0.0791314 -0.217412 0.972867   
     length 2.00134   
     axis -90 7.62852e-016 20   XYZ
    dof rx rz
    limits (-45.0 90.0)
           (-70.0 20.0)
  end
  begin
     id 5 
     name ltoes
     direction 1.53547e-011 -4.21922e-011 1   
     length 1.00735   
     axis -90 7.62852e-016 20   XYZ
    dof rx
    limits (-90.0 20.0)
  end
  begin
     id 6 
     name rhipjoint
     direction -0.496392 -0.78327 0.374276   
     length 2.31584  
     axis 0 0 0  XYZ 
  end
  begin
     id 7 
     name rfemur
     direction -0.34202 -0.939693 0   
     length 7.47417   
     axis 0 0 -20   XYZ
    dof rx ry rz
    limits (-160.0 20.0)
           (-70.0 70.0)
           (-70.0 60.0)
  end
  begin
     id 8 
     name rtibia
     direction -0.34202 -0.939693 0   
     length 7.69071   
     axis 0 0 -20   XYZ
    dof rx
    limits (-10.0 170.0)
 end
 begin
     id 9 
     name rfoot
     direction -0.103069 -0.28318 0.953512   
     length 2.16135  
     axis -90 -7.62852e-016 -20   XYZ
    dof rx rz
    limits (-45.0 90.0)
           (-20.0 70.0)
  end
  begin
     id 10 
     name rtoes
     direction -1.53581e-011 -4.21904e-011 1   
     length 1.07867   
     axis -90 -7.62852e-016 -20   XYZ
    dof rx
    limits (-90.0 20.0)
  end
  begin
     id 11 
     name lowerback
     direction -0.0258961 0.994776 -0.0987407   
     length 2.19412   
     axis 0 0 0   XYZ
    dof rx ry rz
    limits (-20.0 45.0)
           (-30.0 30.0)
           (-30.0 30.0)
  end
  begin
     id 12 
     name upperback
     direction 0.0402454 0.999185 0.00320666   
     length 2.18445   
     axis 0 0 0   XYZ
    dof rx ry rz
    limits (-20.0 45.0)
           (-30.0 30.0)
           (-30.0 30.0)
  end
  begin
     id 13 
     name thorax
     direction 0.0519376 0.997415 0.0496558   
     length 2.21487   
     axis 0 0 0   XYZ
    dof rx ry rz
    limits (-20.0 45.0)
           (-30.0 30.0)
           (-30.0 30.0)
  end
  begin
     id 14 
     name lowerneck
     direction -0.0921276 0.983211 0.157506   
     length 1.61201   
     axis 0 0 0   XYZ
    dof rx ry rz
    limits (-20.0 45.0)
           (-30.0 30.0)
           (-30.0 30.0)
  end
  begin
     id 15 
     name upperneck
     direction 0.0820814 0.98162 -0.172292   
     length 1.65275   
     axis 0 0 0   XYZ
    dof rx ry rz
    limits (-20.0 45.0)
           (-30.0 30.0)
           (-30.0 30.0)
  end
  begin
     id 16
     name head
     direction 0.0336554 0.996413 -0.0776455  
     length 1.66415  
     axis 0 0 0   XYZ
    dof rx ry rz
    limits (-20.0 45.0)
           (-30.0 30.0)
           (-30.0 30.0)
  end
  begin
     id 17 
     name lclavicle
     direction 0.94696 0.284418 -0.149576  
     length 3.41447  
     axis 0 0 0   XYZ
    dof ry rz
    limits (-20.0 10.0)
           (0.0 20.0)
  end
  begin
     id 18 
     name lhumerus
     direction 1 -0.000130264 -9.81312e-005   
     length 5.19964   
     axis 180 -30 -90   XYZ
    dof rx ry rz
    limits (-60.0 90.0)
           (-90.0 90.0)
           (-90.0 90.0)
  end
  begin
     id 19
     name lradius
     direction 1 -4.48961e-011 1.43854e-026   
     length 3.32189   
     axis 180 -30 -90   XYZ
    dof rx
    limits (-10.0 170.0)
  end
  begin
     id 20
     name lwrist
     direction 1 -4.48958e-011 3.1502e-026   
     length 1.66095   
     axis -1.97692e-014 90 90   XYZ
    dof ry
    limits (-180.0 0.0)
 end
  begin
     id 21 
     name lhand
     direction 1 -4.48927e-011 6.3004e-026   
     length 0.645616   
     axis -4.02019e-014 90 90   XYZ
    dof rx rz
    limits (-90.0 90.0)
           (-45.0 45.0)
  end
  begin
     id 22 
     name lfingers
     direction 1 -4.4904e-011 1.26008e-025   
     length 0.520512   
     axis -8.04039e-014 90 90   XYZ
    dof rx
    limits (0.0 90.0)
  end
  begin
     id 23
     name lthumb
     direction 0.707107 -6.34947e-011 0.707107   
     length 0.747354   
     axis -90 45 2.85299e-015   XYZ
    dof rx rz
    limits (-45.0 45.0)
           (-45.0 45.0)
  end
  begin
     id 24 
     name rclavicle
     direction -0.909391 0.383475 -0.161107   
     length 3.25176  
     axis 0 0 0   XYZ 
    dof ry rz
    limits (-10.0 20.0)
           (-20.0 0.0)
  end
  begin
     id 25 
     name rhumerus
     direction -1 -4.48965e-011 -1.81384e-027  
     length 5.6595   
     axis 180 30 90   XYZ
    dof rx ry rz
    limits (-90.0 60.0)
           (-90.0 90.0)
           (-90.0 90.0)
  end
  begin
     id 26 
     name rradius
     direction -1 -4.48996e-011 -8.09397e-027   
     length 3.37604   
     axis 180 30 90   XYZ
    dof rx
    limits (-10.0 170.0)
  end
  begin
     id 27 
     name rwrist
     direction -1 -4.48927e-011 -1.56669e-026   
     length 1.68802   
     axis 1.21142e-014 -90 -90   XYZ
    dof ry
    limits (-180.0 0.0)
  end
  begin
     id 28
     name rhand
     direction -1 -4.48912e-011 -3.13339e-026   
     length 0.824702   
     axis 1.99937e-014 -90 -90   XYZ
    dof rx rz
    limits (-90.0 90.0)
           (-45.0 45.0)
  end
  begin
     id 29
     name rfingers
     direction -1 -4.49011e-011 -6.26677e-026   
     length 0.664896   
     axis 3.99874e-014 -90 -90   XYZ
    dof rx
    limits (0.0 90.0)
  end
  begin
     id 30
     name rthumb
     direction -0.707107 -6.34931e-011 0.707107   
     length 0.954662   
     axis -90 -45 -2.85299e-015   XYZ
    dof rx rz
    limits (-45.0 45.0)
           (-45.0 45.0)
  end
:hierarchy
  begin
    root lhipjoint rhipjoint lowerback
    lhipjoint lfemur
    lfemur ltibia
    ltibia lfoot
    lfoot ltoes
    rhipjoint rfemur
    rfemur rtibia
    rtibia rfoot
    rfoot rtoes
    lowerback upperback
    upperback thorax
    thorax lowerneck lclavicle rclavicle
    lowerneck upperneck
    upperneck head
    lclavicle lhumerus
    lhumerus lradius
    lradius lwrist
    lwrist lhand lthumb
    lhand lfingers
    rclavicle rhumerus
    rhumerus rradius
    rradius rwrist
    rwrist rhand rthumb
    rhand rfingers
  end

#!OML:ASF F:\VICON\USERDATA\INSTALL\rory3\rory3.ASF
:FULLY-SPECIFIED
:DEGREES
219
root 9.41665 17.0642 -24.6879 21.475 -35.7777 0.183654
lowerback 11.9357 -1.44606 -9.30818
upperback 0.0261998 -3.0225 2.98133
thorax -6.0455 -1.16335 9.0022
lowerneck -15.3723 -1.87499 -10.2575
upperneck 21.0736 -2.97112 12.1196
head 9.49726 -0.938192 5.61041
rclavicle 5.07895e-014 -4.49253e-014
rhumerus -34.5492 -9.36605 -73.8959
rradius 47.5364
rwrist -14.4861
rhand -12.361 19.201
rfingers 7.12502
rthumb 13.7091 -10.3275
lclavicle 5.07895e-014 -4.49253e-014
lhumerus -9.02862 16.1011 79.3862
lradius 29.4583
lwrist -5.08068
lhand -7.48803 30.9416
lfingers 7.12502
lthumb 18.4014 60.0912
rfemur -61.8306 -2.92117 19.2983
rtibia 64.0999
rfoot -21.6315 -7.09862
rtoes -3.9235
lfemur -10.7008 -4.99146 -29.269
ltibia 35.5313
lfoot -18.7583 -3.69549
ltoes -3.08151
220
root 9.33769 17.0231 -24.4917 21.6728 -35.5873 0.159885
lowerback 11.8261 -1.59756 -9.30557
upperback 0.0707462 -3.20794 3.05237
thorax -5.89045 -1.26586 9.0966
lowerneck -15.1945 -1.70607 -9.94682
upperneck 20.7063 -2.76206 11.9738
head 9.3029 -0.83529 5.51203
rclavicle 8.05078e-015 1.80894e-014
rhumerus -34.813 -9.04935 -73.8023
rradius 48.2376
rwrist -14.4062
rhand -12.6082 19.2927
rfingers 7.12502
rthumb 13.4708 -10.2517
lclavicle 8.05078e-015 1.80894e-014
lhumerus -8.7208 15.7922 79.134
lradius 29.3317
lwrist -4.87802
lhand -7.69004 31.0658
lfingers 7.12502
lthumb 18.2071 60.2337
rfemur -62.5976 -3.07182 19.4653
rtibia 64.3474
rfoot -21.2574 -4.71332
rtoes 1.13044
lfemur -9.86001 -5.50043 -29.4654
ltibia 35.0988
lfoot -18.488 -3.35905
ltoes -11.094
221
root 9.26218 16.9656 -24.2898 21.8631 -35.4837 -0.0799403
lowerback 11.9706 -1.69426 -9.19271
upperback 0.0633014 -3.32567 3.19449
thorax -5.95101 -1.32122 9.21529
lowerneck -13.543 -1.53391 -10.6664
upperneck 19.0375 -2.53139 12.7851
head 8.41396 -0.748477 5.87504
rclavicle -2.13694e-014 2.36554e-014
rhumerus -35.2314 -8.53309 -73.6802
rradius 49.105
rwrist -14.7865
rhand -12.968 19.0091
rfingers 7.12502
rthumb 13.124 -10.558
lclavicle -2.13694e-014 2.36554e-014
lhumerus -8.52621 15.3642 78.8773
lradius 29.1215
lwrist -4.39696
lhand -8.90312 30.7496
lfingers 7.12502
lthumb 17.0397 60.0223
rfemur -63.27 -3.09676 19.794
rtibia 64.7133
rfoot -20.9513 -3.17652
rtoes 2.48129
lfemur -8.91242 -5.35966 -29.4667
ltibia 34.6516
lfoot -18.1437 -3.70543
ltoes -10.5481
222
root 9.18386 16.9111 -24.08 21.977 -35.4566 -0.29554
lowerback 12.0864 -1.79156 -9.07819
upperback 0.127777 -3.44368 3.25835
thorax -5.92234 -1.38661 9.24122
lowerneck -14.9326 -1.55752 -10.031
upperneck 20.323 -2.59298 12.2699
head 9.10396 -0.740627 5.63635
rclavicle -6.37105e-014 -5.36719e-015
rhumerus -35.4963 -8.54633 -73.5174
rradius 49.6735
rwrist -14.6541
rhand -12.8103 19.3894
rfingers 7.12502
rthumb 13.276 -10.1678
lclavicle -6.37105e-014 -5.36719e-015
lhumerus -8.16421 15.2623 78.455
lradius 28.65
lwrist -4.08379
lhand -10.2421 29.4945
lfingers 7.12502
lthumb 15.7505 58.8736
rfemur -63.8234 -3.14374 20.1653
rtibia 65.0803
rfoot -20.7122 -3.00481
rtoes -0.730948
lfemur -7.84301 -5.29415 -29.5597
ltibia 34.1359
lfoot -17.7198 -3.66163
ltoes -11.3462
223
root 9.09899 16.8628 -23.875 22.0602 -35.3954 -0.372641
lowerback 12.2014 -1.91194 -9.20014
upperback 0.165993 -3.62331 3.37049
thorax -5.89099 -1.47398 9.46873
lowerneck -15.3065 -1.44778 -9.64343
upperneck 20.4968 -2.44422 11.9434
head 9.20719 -0.663599 5.47925
rclavicle 6.19214e-014 -1.2921e-014
rhumerus -35.6164 -8.62791 -73.3165
rradius 50.0233
rwrist -14.2262
rhand -12.6151 20.0344
rfingers 7.12502
rthumb 13.4642 -9.51037
lclavicle 6.19214e-014 -1.2921e-014
lhumerus -8.01176 15.5049 78.0978
lradius 28.3702
lwrist -4.07631
lhand -9.34346 29.8132
lfingers 7.12502
lthumb 16.6158 59.1219
rfemur -64.1473 -2.89069 19.8164
rtibia 65.6698
rfoot -21.1468 -0.326607
rtoes 8.85888
lfemur -6.8984 -5.23727 -29.7039
ltibia 33.6748
lfoot -17.0898 -3.69479
ltoes -12.9502
224
root 9.00597 16.813 -23.6715 22.213 -35.3056 -0.448067
lowerback 12.277 -1.95371 -9.41265
upperback 0.145906 -3.70673 3.53289
thorax -5.9125 -1.50474 9.79216
lowerneck -14.7709 -1.3613 -9.78702
upperneck 19.9094 -2.32902 12.1512
head 8.89455 -0.6145 5.56375
rclavicle 2.5842e-015 4.96962e-014
rhumerus -35.9041 -8.39483 -73.2191
rradius 50.7392
rwrist -14.5916
rhand -13.1035 19.7247
rfingers 7.12502
rthumb 12.9934 -9.8507
lclavicle 2.5842e-015 4.96962e-014
lhumerus -8.16404 15.5811 77.9836
lradius 28.4818
lwrist -4.2486
lhand -8.44717 31.0879
lfingers 7.12502
lthumb 17.4785 60.3221
rfemur -64.5859 -2.81432 19.8522
rtibia 66.2367
rfoot -21.0245 0.989873
rtoes 11.0282
lfemur -6.03523 -5.19255 -29.7846
ltibia 33.1706
lfoot -16.2072 -4.13598
ltoes -11.6421
